<svg xmlns="http://www.w3.org/2000/svg">
  <symbol id="agrega" viewBox="0 0 512 512" xmlns="http://www.w3.org/2000/svg">
    <title>Agregar</title>
    <g>
      <path d="m256 0c-141.164062 0-256 114.835938-256 256s114.835938 256 256 256 256-114.835938 256-256-114.835938-256-256-256zm0 0" fill="#334d5c"/>
      <path d="m368 277.332031h-90.667969v90.667969c0 11.777344-9.554687 21.332031-21.332031 21.332031s-21.332031-9.554687-21.332031-21.332031v-90.667969h-90.667969c-11.777344 0-21.332031-9.554687-21.332031-21.332031s9.554687-21.332031 21.332031-21.332031h90.667969v-90.667969c0-11.777344 9.554687-21.332031 21.332031-21.332031s21.332031 9.554687 21.332031 21.332031v90.667969h90.667969c11.777344 0 21.332031 9.554687 21.332031 21.332031s-9.554687 21.332031-21.332031 21.332031zm0 0" fill="#fafafa"/>
    </g>
  </symbol>
  <symbol id="elimina" viewBox="0 0 150 150" xmlns="http://www.w3.org/2000/svg" data-name="eliminar">
    <title>Eliminar</title>
    <g>
      <circle cx="75" cy="75" fill="#334d5c" r="64"/>
      <path d="m65.81 47.16v-2.79a1.85 1.85 0 0 1 1.85-1.85h14.68a1.85 1.85 0 0 1 1.85 1.85v2.79h2.88v-2.79a4.73 4.73 0 0 0 -4.73-4.73h-14.68a4.73 4.73 0 0 0 -4.73 4.73v2.79z" fill="#b7b7ba"/>
      <path d="m50 52.08 3.2 54.5a4 4 0 0 0 4 3.78h35.63a4 4 0 0 0 4-3.78l3.2-54.5z" fill="#d5d6db"/>
      <rect fill="#e1e6e9" height="9.86" rx="1.74" width="56.1" x="46.95" y="45.85"/>
      <g fill="#b6b7ba">
        <path d="m63.8 62.46a2.06 2.06 0 0 0 -2.06 2.06v37.48a2.07 2.07 0 1 0 4.13 0v-37.48a2.07 2.07 0 0 0 -2.07-2.06z"/>
        <path d="m75 62.46a2.06 2.06 0 0 0 -2.06 2.06v37.48a2.06 2.06 0 1 0 4.12 0v-37.48a2.06 2.06 0 0 0 -2.06-2.06z"/>
        <path d="m86.2 62.46a2.07 2.07 0 0 0 -2.07 2.06v37.48a2.07 2.07 0 1 0 4.13 0v-37.48a2.06 2.06 0 0 0 -2.06-2.06z"/>
      </g>
    </g>
  </symbol>
  <symbol id="escudo" enable-background="new 0 0 512 512" viewBox="0 0 512 512" xmlns="http://www.w3.org/2000/svg">
    <title>Escudo</title>
    <g>
      <path d="m430.799 94.345c-32.293-1.618-64.066-7.776-94.436-18.304-27.069-9.384-52.77-22.165-76.388-37.988-2.503-1.679-5.767-1.694-8.288-.041-23.231 15.235-48.39 27.654-74.777 36.911-30.79 10.799-63.011 17.238-95.77 19.139-3.966.23-7.065 3.514-7.065 7.487v158.01c0 64.775 33.832 124.812 90.5 160.598l87.42 55.205c2.446 1.545 5.563 1.543 8.009 0l87.42-55.204c56.668-35.787 90.5-95.823 90.5-160.599v-107.106c0-4.143-3.358-7.5-7.5-7.5s-7.5 3.357-7.5 7.5v107.105c0 59.598-31.218 114.894-83.509 147.915l-83.415 52.677-83.416-52.677c-52.29-33.021-83.508-88.316-83.508-147.914v-151c31.722-2.452 62.906-8.996 92.8-19.481 25.969-9.109 50.801-21.157 73.883-35.838 23.54 15.285 48.981 27.715 75.692 36.974 29.475 10.218 60.214 16.494 91.474 18.685v13.556c0 4.143 3.358 7.5 7.5 7.5s7.5-3.357 7.5-7.5v-20.618c-.001-3.998-3.134-7.293-7.126-7.492zm-25.547 48.665c-1.363-4.193-4.92-7.192-9.283-7.826l-13.813-2.007-6.177-12.517c-1.952-3.954-5.903-6.41-10.313-6.41s-8.361 2.456-10.313 6.41l-6.177 12.517-13.812 2.007c-4.363.634-7.92 3.633-9.284 7.826-1.363 4.193-.248 8.711 2.91 11.79l9.994 9.741-2.359 13.756c-.746 4.347 1.007 8.656 4.575 11.249 3.577 2.599 8.223 2.92 12.111.875l12.354-6.495 12.354 6.495c3.903 2.053 8.543 1.715 12.11-.875 3.568-2.592 5.321-6.901 4.576-11.248l-2.36-13.757 9.995-9.742c3.16-3.078 4.274-7.596 2.912-11.789zm-24.694 12.075c-2.709 2.643-3.945 6.446-3.306 10.178l1.472 8.581-7.707-4.053c-1.675-.88-3.512-1.319-5.35-1.319s-3.676.44-5.352 1.32l-7.706 4.052 1.472-8.579c.641-3.732-.596-7.538-3.308-10.181l-6.234-6.076 8.616-1.252c3.745-.544 6.982-2.896 8.659-6.291l3.853-7.807 3.852 7.806c1.675 3.396 4.912 5.747 8.659 6.292l8.615 1.252zm-213.464 202.086c-2.936-4.392-5.57-9.026-7.85-13.89-1.758-3.751-6.226-5.365-9.974-3.607-3.75 1.759-5.365 6.225-3.607 9.975 19.885 42.411 64.402 70.152 110.337 70.152 64.598 0 121.8-56.307 121.8-121.787 0-.004 0-.009 0-.014 0-66.599-59.197-121.801-121.8-121.801-74.899 0-132.883 70.637-119.899 143.351.728 4.077 4.624 6.794 8.702 6.064 4.078-.728 6.792-4.624 6.064-8.701-.852-4.771-1.373-9.64-1.571-14.528l29.207-21.22 27.484 12.444 14.448 44.466-16.329 19.096zm-16.858-74.008c1.759-12.597 5.721-24.497 11.487-35.297l7.084 21.803zm152.565 110.822 7.088-21.814h22.878c-8.603 8.901-18.733 16.315-29.966 21.814zm47.477-146.119c5.766 10.8 9.728 22.699 11.487 35.297l-18.571-13.493zm12.425 54.519c-.82 20.202-7.275 38.975-17.837 54.786h-36.972l-16.329-19.096 14.448-44.466 27.484-12.444zm-22.97-70.605-11.466 35.288-27.484 12.444-37.283-27.088v-33.013l29.651-21.543c18.473 6.876 34.545 18.725 46.582 33.912zm-48.646 59.228-13.402 41.247h-43.369l-13.402-41.247 35.086-25.492zm-35.087-99.809c6.336 0 12.544.558 18.58 1.621l-18.58 13.5-18.58-13.499c6.036-1.064 12.244-1.622 18.58-1.622zm-44.783 88.313-27.484-12.444-11.466-35.288c12.036-15.188 28.108-27.036 46.582-33.912l29.651 21.543v33.013zm21.104 67.743h47.358l16.329 19.096-11.21 34.502c-9.165 2.57-18.823 3.948-28.797 3.948-9.874 0-19.556-1.397-28.819-4.014l-11.189-34.436zm-53.093 24.916h22.884l7.061 21.73c-11.131-5.449-21.28-12.801-29.945-21.73zm-57.358-182.625c3.566 2.592 8.208 2.928 12.11.875l12.354-6.495 12.354 6.495c3.889 2.045 8.533 1.725 12.111-.875 3.568-2.593 5.321-6.902 4.575-11.248l-2.359-13.757 9.995-9.742c3.158-3.078 4.272-7.596 2.91-11.789-1.363-4.193-4.92-7.192-9.283-7.826l-13.813-2.007-6.177-12.517c-1.952-3.954-5.903-6.41-10.313-6.41s-8.361 2.456-10.313 6.41l-6.177 12.517-13.812 2.007c-4.363.634-7.92 3.633-9.284 7.826-1.363 4.193-.248 8.711 2.91 11.79l9.995 9.741-2.36 13.758c-.744 4.346 1.009 8.655 4.577 11.247zm11.953-41.79c3.747-.545 6.983-2.896 8.658-6.291l3.853-7.807 3.854 7.808c1.676 3.395 4.913 5.746 8.658 6.29l8.615 1.252-6.234 6.076c-2.711 2.643-3.948 6.448-3.308 10.179l1.472 8.581-7.707-4.052c-3.35-1.762-7.35-1.759-10.702 0l-7.705 4.052 1.472-8.582c.639-3.73-.597-7.534-3.308-10.178l-6.234-6.076zm326.317-83.204c-39.066 1.479-77.405-4.188-113.95-16.856-31.002-10.747-59.807-26.271-85.614-46.138-2.671-2.058-6.384-2.078-9.08-.055-25.629 19.252-54.064 34.43-84.514 45.11-36.902 12.943-75.666 18.967-115.208 17.936-2.039-.069-3.981.713-5.431 2.124-1.45 1.412-2.267 3.35-2.267 5.373v187.513c0 75.13 39.059 144.649 104.481 185.964l103.438 65.319c2.446 1.544 5.563 1.544 8.009 0l103.438-65.319c65.423-41.314 104.481-110.834 104.481-185.964v-187.513c.022-4.174-3.601-7.652-7.783-7.494zm-7.216 195.007c0 69.953-36.445 134.73-97.49 173.28l-99.434 62.791-99.434-62.791c-61.045-38.55-97.49-103.327-97.49-173.28v-179.898c38.672.152 76.642-6.187 112.871-18.894 30.109-10.562 58.34-25.32 84-43.908 25.917 19.224 54.598 34.354 85.331 45.008 35.882 12.439 73.405 18.443 111.648 17.879v179.813zm-157.339-146.549c-1.363-4.193-4.92-7.192-9.283-7.826l-13.813-2.007-6.177-12.517c-1.952-3.954-5.903-6.41-10.313-6.41-4.409 0-8.361 2.456-10.312 6.41l-6.177 12.517-13.812 2.007c-4.363.634-7.92 3.633-9.284 7.826-1.363 4.193-.248 8.711 2.91 11.79l9.994 9.741-2.359 13.758c-.745 4.346 1.009 8.656 4.577 11.247 3.578 2.598 8.222 2.92 12.109.875l12.355-6.495 12.354 6.494c3.902 2.054 8.543 1.718 12.11-.874 3.568-2.591 5.322-6.901 4.577-11.248l-2.359-13.757 9.995-9.742c3.156-3.078 4.271-7.596 2.908-11.789zm-24.692 12.074c-2.711 2.643-3.948 6.448-3.308 10.179l1.472 8.581-7.707-4.052c-3.351-1.762-7.351-1.762-10.702 0l-7.706 4.052 1.472-8.579c.641-3.732-.596-7.538-3.308-10.181l-6.234-6.076 8.616-1.252c3.745-.545 6.981-2.896 8.658-6.291l3.853-7.807 3.854 7.808c1.676 3.395 4.912 5.745 8.658 6.29l8.616 1.252z" fill="#ffffff"/>
    </g>
  </symbol>
</svg>
